# Blender 4.0.2
# www.blender.org
mtllib senile.mtl
o Cube.001
v -1.424060 0.003297 -2.335794
v -1.311389 0.132869 2.344774
v -1.424060 0.003297 2.243371
v -1.311389 0.801606 2.344774
v -1.311389 0.931177 2.243371
v -1.424060 0.801606 2.243371
v -1.311389 0.931177 -2.234391
v -1.424060 0.801606 -2.335794
v -1.023016 0.003297 2.243371
v -0.910346 0.132869 2.243371
v -1.023016 0.132869 2.344774
v -1.023016 0.931177 2.243371
v -1.023016 0.801606 2.344774
v -0.910346 0.801606 2.243371
v -0.910346 0.132869 -2.234391
v -1.023016 0.003297 -2.335794
v -1.023016 0.931177 -2.234391
v -0.910346 0.801606 -2.234391
v -1.023016 0.801606 -2.335794
vn -0.0000 -0.0000 1.0000
vn 1.0000 -0.0000 -0.0000
vn -0.0000 1.0000 -0.0000
vn -1.0000 -0.0000 -0.0000
vn -0.0000 -0.0000 -1.0000
vn -0.5782 0.5028 0.6425
vn 0.5782 -0.5028 0.6425
vn 0.5782 0.5028 0.6425
vn 0.5782 0.5028 -0.6425
vn -0.6690 -0.0000 0.7433
vn -0.7546 0.6562 -0.0000
vn -0.0000 0.6163 -0.7875
vn 0.6690 -0.0000 -0.7433
vn 0.7546 -0.6562 -0.0000
vn 0.7546 0.6562 -0.0000
vn 0.6690 -0.0000 0.7433
vn -0.0000 -0.6163 0.7875
vn -0.0000 0.6163 0.7875
vn -0.0000 -1.0000 -0.0000
vt 0.409911 0.804832
vt 0.590089 0.804832
vt 0.590089 0.945168
vt 0.409911 0.945168
vt 0.409911 0.505416
vt 0.590089 0.505416
vt 0.590089 0.744584
vt 0.409911 0.744584
vt 0.679832 0.505416
vt 0.820169 0.505416
vt 0.820168 0.744584
vt 0.679832 0.744584
vt 0.375000 0.005416
vt 0.590089 0.005416
vt 0.590089 0.250000
vt 0.375000 0.250000
vt 0.590089 0.250000
vt 0.590089 0.445168
vt 0.375000 0.445168
vt 0.625000 0.945168
vt 0.590089 1.000000
vt 0.375000 0.804832
vt 0.409911 0.750000
vt 0.625000 0.804832
vt 0.590089 0.750000
vt 0.625000 0.505416
vt 0.590089 0.500000
vt 0.375000 1.000000
vt 0.875000 0.500000
vt 0.875000 0.744584
vt 0.679832 0.500000
vt 0.320168 0.744584
vt 0.320168 0.500000
vt 0.125000 0.500000
vt 0.125000 0.744584
s 0
f 11/1/1 13/2/1 4/3/1 2/4/1
f 15/5/2 18/6/2 14/7/2 10/8/2
f 17/9/3 7/10/3 5/11/3 12/12/3
f 3/13/4 6/14/4 8/15/4 1/16/4
f 1/16/5 8/17/5 19/18/5 16/19/5
f 4/3/6 5/20/6 6/21/6
f 9/22/7 10/23/7 11/1/7
f 12/24/8 13/2/8 14/25/8
f 17/26/9 18/6/9 19/27/9
f 2/4/10 4/3/10 6/21/10 3/28/10
f 5/11/11 7/10/11 8/29/11 6/30/11
f 7/10/12 17/9/12 19/31/12 8/29/12
f 18/6/13 15/5/13 16/19/13 19/18/13
f 9/32/14 16/33/14 15/5/14 10/8/14
f 17/9/15 12/12/15 14/7/15 18/6/15
f 13/2/16 11/1/16 10/8/16 14/7/16
f 3/28/17 9/22/17 11/1/17 2/4/17
f 12/24/18 5/20/18 4/3/18 13/2/18
f 1/34/19 16/33/19 9/32/19 3/35/19
o Cube.004
v 1.489654 0.003297 -2.335794
v 1.376983 0.132869 2.344774
v 1.489654 0.003297 2.243371
v 1.376983 0.801606 2.344774
v 1.376983 0.931177 2.243371
v 1.489654 0.801606 2.243371
v 1.376983 0.931177 -2.234391
v 1.489654 0.801606 -2.335794
v 1.088611 0.003297 2.243371
v 0.975940 0.132869 2.243371
v 1.088611 0.132869 2.344774
v 1.088611 0.931177 2.243371
v 1.088611 0.801606 2.344774
v 0.975940 0.801606 2.243371
v 0.975940 0.132869 -2.234391
v 1.088611 0.003297 -2.335794
v 1.088611 0.931177 -2.234391
v 0.975940 0.801606 -2.234391
v 1.088611 0.801606 -2.335794
vn -0.0000 -0.0000 1.0000
vn -1.0000 -0.0000 -0.0000
vn -0.0000 1.0000 -0.0000
vn 1.0000 -0.0000 -0.0000
vn -0.0000 -0.0000 -1.0000
vn 0.5782 0.5028 0.6425
vn -0.5782 -0.5028 0.6425
vn -0.5782 0.5028 0.6425
vn -0.5782 0.5028 -0.6425
vn 0.6690 -0.0000 0.7433
vn 0.7546 0.6562 -0.0000
vn -0.0000 0.6163 -0.7875
vn -0.6690 -0.0000 -0.7433
vn -0.7546 -0.6562 -0.0000
vn -0.7546 0.6562 -0.0000
vn -0.6690 -0.0000 0.7433
vn -0.0000 -0.6163 0.7875
vn -0.0000 0.6163 0.7875
vn -0.0000 -1.0000 -0.0000
vt 0.409911 0.804832
vt 0.590089 0.804832
vt 0.590089 0.945168
vt 0.409911 0.945168
vt 0.409911 0.505416
vt 0.590089 0.505416
vt 0.590089 0.744584
vt 0.409911 0.744584
vt 0.679832 0.505416
vt 0.820169 0.505416
vt 0.820168 0.744584
vt 0.679832 0.744584
vt 0.375000 0.005416
vt 0.590089 0.005416
vt 0.590089 0.250000
vt 0.375000 0.250000
vt 0.590089 0.250000
vt 0.590089 0.445168
vt 0.375000 0.445168
vt 0.625000 0.945168
vt 0.590089 1.000000
vt 0.375000 0.804832
vt 0.409911 0.750000
vt 0.625000 0.804832
vt 0.590089 0.750000
vt 0.625000 0.505416
vt 0.590089 0.500000
vt 0.375000 1.000000
vt 0.875000 0.500000
vt 0.875000 0.744584
vt 0.679832 0.500000
vt 0.320168 0.744584
vt 0.320168 0.500000
vt 0.125000 0.500000
vt 0.125000 0.744584
s 0
f 30/36/20 21/39/20 23/38/20 32/37/20
f 34/40/21 29/43/21 33/42/21 37/41/21
f 36/44/22 31/47/22 24/46/22 26/45/22
f 22/48/23 20/51/23 27/50/23 25/49/23
f 20/51/24 35/54/24 38/53/24 27/52/24
f 23/38/25 25/56/25 24/55/25
f 28/57/26 30/36/26 29/58/26
f 31/59/27 33/60/27 32/37/27
f 36/61/28 38/62/28 37/41/28
f 21/39/29 22/63/29 25/56/29 23/38/29
f 24/46/30 25/65/30 27/64/30 26/45/30
f 26/45/31 27/64/31 38/66/31 36/44/31
f 37/41/32 38/53/32 35/54/32 34/40/32
f 28/67/33 29/43/33 34/40/33 35/68/33
f 36/44/34 37/41/34 33/42/34 31/47/34
f 32/37/35 33/42/35 29/43/35 30/36/35
f 22/63/36 21/39/36 30/36/36 28/57/36
f 31/59/37 32/37/37 23/38/37 24/55/37
f 20/69/38 22/70/38 28/67/38 35/68/38
o Cube.003
v -0.995935 0.349473 -0.071779
v -0.995935 0.480200 -0.071779
v -0.995935 0.349473 -0.489014
v -0.995935 0.480200 -0.489014
v 1.013260 0.349473 -0.071779
v 1.013260 0.480200 -0.071779
v 1.013260 0.349473 -0.489014
v 1.013260 0.480200 -0.489014
vn -1.0000 -0.0000 -0.0000
vn -0.0000 -0.0000 -1.0000
vn 1.0000 -0.0000 -0.0000
vn -0.0000 -0.0000 1.0000
vn -0.0000 -1.0000 -0.0000
vn -0.0000 1.0000 -0.0000
vt 0.375000 0.000000
vt 0.625000 0.000000
vt 0.625000 0.250000
vt 0.375000 0.250000
vt 0.625000 0.500000
vt 0.375000 0.500000
vt 0.625000 0.750000
vt 0.375000 0.750000
vt 0.625000 1.000000
vt 0.375000 1.000000
vt 0.125000 0.500000
vt 0.125000 0.750000
vt 0.875000 0.500000
vt 0.875000 0.750000
s 0
f 39/71/39 40/72/39 42/73/39 41/74/39
f 41/74/40 42/73/40 46/75/40 45/76/40
f 45/76/41 46/75/41 44/77/41 43/78/41
f 43/78/42 44/77/42 40/79/42 39/80/42
f 41/81/43 45/76/43 43/78/43 39/82/43
f 46/75/44 42/83/44 40/84/44 44/77/44
